<svg width="132" height="31" viewBox="0 0 132 31" fill="none" xmlns="http://www.w3.org/2000/svg">
<path d="M42.9867 13.48C42.8133 12.3733 42.44 11.54 41.8667 10.98C41.3067 10.42 40.56 10.1333 39.6267 10.12C38.9333 10.12 38.3267 10.28 37.8067 10.6C37.2867 10.92 36.8533 11.3467 36.5067 11.88C36.1733 12.4133 35.92 13.02 35.7467 13.7C35.5867 14.38 35.5067 15.08 35.5067 15.8C35.5067 16.9467 35.6667 17.9667 35.9867 18.86C36.32 19.74 36.8 20.4333 37.4267 20.94C38.0533 21.4467 38.8133 21.7 39.7067 21.7C40.5467 21.7 41.38 21.4867 42.2067 21.06C43.0333 20.62 43.7267 20.0133 44.2867 19.24L45.2467 20.12C44.5933 21.0133 43.9067 21.6933 43.1867 22.16C42.4667 22.6133 41.76 22.92 41.0667 23.08C40.3867 23.24 39.7733 23.32 39.2267 23.32C38.2 23.32 37.2667 23.14 36.4267 22.78C35.5867 22.4067 34.86 21.9 34.2467 21.26C33.6467 20.6067 33.18 19.8533 32.8467 19C32.5267 18.1333 32.3667 17.2 32.3667 16.2C32.3667 15.2933 32.5133 14.3933 32.8067 13.5C33.1 12.6067 33.5333 11.8 34.1067 11.08C34.6933 10.3467 35.4267 9.76667 36.3067 9.34C37.1867 8.9 38.2067 8.68 39.3667 8.68C39.8867 8.68 40.4533 8.76667 41.0667 8.94C41.6933 9.1 42.28 9.34 42.8267 9.66L42.7467 8.82H44.2867V13.48H42.9867ZM53.0962 23.32C51.8295 23.32 50.7495 23.1067 49.8562 22.68C48.9762 22.2533 48.2629 21.6867 47.7162 20.98C47.1695 20.26 46.7695 19.4667 46.5162 18.6C46.2629 17.7333 46.1362 16.8667 46.1362 16C46.1362 15.16 46.2762 14.3133 46.5562 13.46C46.8495 12.5933 47.2829 11.8 47.8562 11.08C48.4429 10.36 49.1762 9.78 50.0562 9.34C50.9362 8.9 51.9695 8.68 53.1562 8.68C54.3695 8.68 55.4162 8.9 56.2962 9.34C57.1762 9.78 57.8962 10.3667 58.4562 11.1C59.0162 11.82 59.4295 12.6067 59.6962 13.46C59.9762 14.3133 60.1162 15.16 60.1162 16C60.1162 16.8267 59.9695 17.6667 59.6762 18.52C59.3962 19.3733 58.9629 20.1667 58.3762 20.9C57.8029 21.62 57.0762 22.2067 56.1962 22.66C55.3162 23.1 54.2829 23.32 53.0962 23.32ZM53.3162 21.86C54.0095 21.86 54.5895 21.6933 55.0562 21.36C55.5229 21.0133 55.8962 20.5667 56.1762 20.02C56.4562 19.4733 56.6562 18.88 56.7762 18.24C56.8962 17.5867 56.9562 16.9533 56.9562 16.34C56.9562 15.42 56.8762 14.58 56.7162 13.82C56.5562 13.06 56.3095 12.4067 55.9762 11.86C55.6429 11.3 55.2162 10.8733 54.6962 10.58C54.1895 10.2733 53.5895 10.1267 52.8962 10.14C52.2162 10.1533 51.6429 10.34 51.1762 10.7C50.7095 11.0467 50.3362 11.5 50.0562 12.06C49.7762 12.6067 49.5762 13.2067 49.4562 13.86C49.3362 14.5133 49.2762 15.1467 49.2762 15.76C49.2762 16.3867 49.3429 17.0533 49.4762 17.76C49.6229 18.4667 49.8495 19.1333 50.1562 19.76C50.4629 20.3867 50.8762 20.8933 51.3962 21.28C51.9162 21.6667 52.5562 21.86 53.3162 21.86ZM68.4673 23.32C67.2006 23.32 66.1206 23.1067 65.2273 22.68C64.3473 22.2533 63.6339 21.6867 63.0873 20.98C62.5406 20.26 62.1406 19.4667 61.8873 18.6C61.6339 17.7333 61.5073 16.8667 61.5073 16C61.5073 15.16 61.6473 14.3133 61.9273 13.46C62.2206 12.5933 62.6539 11.8 63.2273 11.08C63.8139 10.36 64.5473 9.78 65.4273 9.34C66.3073 8.9 67.3406 8.68 68.5273 8.68C69.7406 8.68 70.7873 8.9 71.6673 9.34C72.5473 9.78 73.2673 10.3667 73.8273 11.1C74.3873 11.82 74.8006 12.6067 75.0673 13.46C75.3473 14.3133 75.4873 15.16 75.4873 16C75.4873 16.8267 75.3406 17.6667 75.0473 18.52C74.7673 19.3733 74.3339 20.1667 73.7473 20.9C73.1739 21.62 72.4473 22.2067 71.5673 22.66C70.6873 23.1 69.6539 23.32 68.4673 23.32ZM68.6873 21.86C69.3806 21.86 69.9606 21.6933 70.4273 21.36C70.8939 21.0133 71.2673 20.5667 71.5473 20.02C71.8273 19.4733 72.0273 18.88 72.1473 18.24C72.2673 17.5867 72.3273 16.9533 72.3273 16.34C72.3273 15.42 72.2473 14.58 72.0873 13.82C71.9273 13.06 71.6806 12.4067 71.3473 11.86C71.0139 11.3 70.5873 10.8733 70.0673 10.58C69.5606 10.2733 68.9606 10.1267 68.2673 10.14C67.5873 10.1533 67.0139 10.34 66.5473 10.7C66.0806 11.0467 65.7073 11.5 65.4273 12.06C65.1473 12.6067 64.9473 13.2067 64.8273 13.86C64.7073 14.5133 64.6473 15.1467 64.6473 15.76C64.6473 16.3867 64.7139 17.0533 64.8473 17.76C64.9939 18.4667 65.2206 19.1333 65.5273 19.76C65.8339 20.3867 66.2473 20.8933 66.7673 21.28C67.2873 21.6667 67.9273 21.86 68.6873 21.86ZM76.944 23V21.68C77.2507 21.6667 77.504 21.6267 77.704 21.56C77.9173 21.4933 78.0773 21.34 78.184 21.1C78.304 20.86 78.364 20.4733 78.364 19.94V12.28C78.364 11.92 78.3707 11.5733 78.384 11.24C78.4107 10.9067 78.4307 10.6533 78.444 10.48C78.2307 10.4933 77.964 10.5067 77.644 10.52C77.324 10.52 77.0907 10.5267 76.944 10.54V9H82.684V10.32C82.3907 10.3333 82.1373 10.3733 81.924 10.44C81.7107 10.5067 81.544 10.66 81.424 10.9C81.3173 11.1267 81.264 11.5133 81.264 12.06V15.1H82.704L84.244 12.48C84.4707 12.08 84.7107 11.68 84.964 11.28C85.2173 10.88 85.4307 10.6067 85.604 10.46C85.3907 10.4733 85.164 10.4867 84.924 10.5C84.684 10.5133 84.4907 10.5267 84.344 10.54V9H89.244V10.32C88.9507 10.3333 88.6307 10.3867 88.284 10.48C87.9507 10.5733 87.604 10.76 87.244 11.04C86.884 11.32 86.5173 11.76 86.144 12.36L84.224 15.44C84.4907 15.6133 84.724 15.8 84.924 16C85.1373 16.1867 85.324 16.3933 85.484 16.62L87.544 19.52C87.8107 19.8933 88.084 20.2467 88.364 20.58C88.6573 20.9 88.9573 21.16 89.264 21.36C89.5707 21.56 89.8707 21.6667 90.164 21.68V23H87.084C86.9773 22.9867 86.804 22.8667 86.564 22.64C86.324 22.4133 86.0707 22.14 85.804 21.82C85.5373 21.5 85.3107 21.2133 85.124 20.96L83.144 18.08C82.9707 17.8267 82.7773 17.5667 82.564 17.3C82.364 17.0333 82.1707 16.8333 81.984 16.7H81.264V19.72C81.264 20.08 81.2573 20.4267 81.244 20.76C81.2307 21.0933 81.2107 21.3467 81.184 21.52C81.3973 21.4933 81.664 21.48 81.984 21.48C82.3173 21.4667 82.5507 21.46 82.684 21.46V23H76.944ZM96.9223 10.32C96.6289 10.3333 96.3756 10.3733 96.1623 10.44C95.9489 10.5067 95.7823 10.66 95.6623 10.9C95.5556 11.1267 95.5023 11.5133 95.5023 12.06V19.72C95.5023 20.08 95.4956 20.4267 95.4823 20.76C95.4689 21.0933 95.4489 21.3467 95.4223 21.52C95.6356 21.4933 95.9023 21.48 96.2223 21.48C96.5556 21.4667 96.7889 21.46 96.9223 21.46V23H91.1823V21.68C91.4889 21.6667 91.7423 21.6267 91.9423 21.56C92.1556 21.4933 92.3156 21.34 92.4223 21.1C92.5423 20.86 92.6023 20.4733 92.6023 19.94V12.28C92.6023 11.92 92.6089 11.5733 92.6223 11.24C92.6489 10.9067 92.6689 10.6533 92.6823 10.48C92.4689 10.4933 92.2023 10.5067 91.8823 10.52C91.5623 10.52 91.3289 10.5267 91.1823 10.54V9H96.9223V10.32ZM98.9167 23V21.68C99.2233 21.6667 99.4767 21.6267 99.6767 21.56C99.89 21.4933 100.05 21.34 100.157 21.1C100.277 20.86 100.337 20.4733 100.337 19.94V12.28C100.337 11.92 100.343 11.5733 100.357 11.24C100.383 10.9067 100.403 10.6533 100.417 10.48C100.203 10.4933 99.9367 10.5067 99.6167 10.52C99.2967 10.52 99.0633 10.5267 98.9167 10.54V9H108.917L109.037 12.88H107.717C107.717 12.1467 107.59 11.5933 107.337 11.22C107.083 10.8467 106.77 10.6 106.397 10.48C106.023 10.3467 105.657 10.2867 105.297 10.3L104.577 10.32C104.297 10.32 104.057 10.36 103.857 10.44C103.657 10.5067 103.503 10.6667 103.397 10.92C103.29 11.16 103.237 11.54 103.237 12.06V15.54H105.297L105.217 13.82H106.757V18.68H105.437C105.437 18.12 105.35 17.7133 105.177 17.46C105.003 17.2067 104.763 17.0533 104.457 17C104.163 16.9333 103.837 16.9067 103.477 16.92H103.237V19.72C103.237 20.08 103.23 20.4267 103.217 20.76C103.203 21.0933 103.183 21.3467 103.157 21.52C103.303 21.5067 103.497 21.5 103.737 21.5C103.977 21.4867 104.21 21.48 104.437 21.48C104.677 21.4667 104.843 21.46 104.937 21.46V23H98.9167ZM113.52 23V21.68C113.826 21.6667 114.08 21.6267 114.28 21.56C114.493 21.4933 114.653 21.34 114.76 21.1C114.88 20.86 114.94 20.4733 114.94 19.94V18.2L111.26 12.38C111.073 12.0733 110.9 11.7333 110.74 11.36C110.58 10.9867 110.5 10.6933 110.5 10.48C110.286 10.4933 110.106 10.5067 109.96 10.52C109.813 10.52 109.666 10.5267 109.52 10.54V9H115.42V10.32C115.033 10.2933 114.713 10.3333 114.46 10.44C114.206 10.5467 114.053 10.72 114 10.96C113.946 11.1867 114.026 11.4867 114.24 11.86L115.76 14.36C115.826 14.4667 115.926 14.64 116.06 14.88C116.193 15.1067 116.326 15.3533 116.46 15.62C116.606 15.8733 116.713 16.1 116.78 16.3H116.8C116.866 16.14 116.98 15.9 117.14 15.58C117.3 15.26 117.5 14.8467 117.74 14.34L118.78 12.3C118.846 12.1533 118.94 11.9667 119.06 11.74C119.18 11.5 119.306 11.2667 119.44 11.04C119.586 10.8 119.72 10.6067 119.84 10.46C119.626 10.4733 119.353 10.4867 119.02 10.5C118.686 10.5133 118.446 10.5267 118.3 10.54V9H122.72V10.32C122.253 10.3867 121.853 10.58 121.52 10.9C121.186 11.2067 120.826 11.7267 120.44 12.46C120.013 13.2867 119.58 14.12 119.14 14.96C118.7 15.8 118.266 16.6333 117.84 17.46C117.84 17.6467 117.84 17.8333 117.84 18.02C117.84 18.2067 117.84 18.4 117.84 18.6C117.84 18.7867 117.84 18.9733 117.84 19.16C117.84 19.3467 117.84 19.5333 117.84 19.72C117.84 20.08 117.833 20.4267 117.82 20.76C117.806 21.0933 117.786 21.3467 117.76 21.52C117.986 21.4933 118.273 21.48 118.62 21.48C118.98 21.4667 119.226 21.46 119.36 21.46V23H113.52Z" fill="black"/>
<path d="M26.875 12.25C26.8732 10.6261 26.212 9.06917 25.0364 7.92089C23.8607 6.7726 22.2668 6.12674 20.6042 6.125C20.406 6.125 20.2078 6.13594 20.0118 6.15344C19.5062 5.09937 18.7035 4.20785 17.6978 3.58332C16.6921 2.95878 15.5251 2.62709 14.3333 2.62709C13.1416 2.62709 11.9745 2.95878 10.9688 3.58332C9.96316 4.20785 9.16049 5.09937 8.65487 6.15344C8.45891 6.13594 8.26071 6.125 8.0625 6.125C6.639 6.12534 5.25798 6.59872 4.14645 7.46735C3.03492 8.33597 2.25904 9.54813 1.94635 10.9046C1.63366 12.261 1.80277 13.681 2.42588 14.9311C3.04899 16.1812 4.08902 17.1871 5.375 17.7833V22.75C5.375 23.2141 5.56377 23.6592 5.89977 23.9874C6.23577 24.3156 6.69149 24.5 7.16667 24.5H21.5C21.9752 24.5 22.4309 24.3156 22.7669 23.9874C23.1029 23.6592 23.2917 23.2141 23.2917 22.75V17.7833C24.363 17.2856 25.2681 16.5018 25.9022 15.5226C26.5364 14.5433 26.8737 13.4087 26.875 12.25ZM21.5 22.75H7.16667V18.3116C7.46332 18.3538 7.76272 18.375 8.0625 18.375H20.6042C20.904 18.375 21.2033 18.3538 21.5 18.3116V22.75ZM20.6042 16.625H19.0645L19.6815 14.2122C19.7345 13.9886 19.6956 13.7537 19.573 13.5579C19.4504 13.3622 19.254 13.2213 19.026 13.1657C18.7981 13.11 18.557 13.144 18.3545 13.2604C18.152 13.3768 18.0044 13.5662 17.9435 13.7878L17.2168 16.625H15.2292V14C15.2292 13.7679 15.1348 13.5454 14.9668 13.3813C14.7988 13.2172 14.5709 13.125 14.3333 13.125C14.0957 13.125 13.8679 13.2172 13.6999 13.3813C13.5319 13.5454 13.4375 13.7679 13.4375 14V16.625H11.4499L10.7231 13.7878C10.6963 13.6746 10.6466 13.5678 10.577 13.4736C10.5075 13.3794 10.4194 13.2996 10.3179 13.239C10.2165 13.1784 10.1037 13.1381 9.98609 13.1205C9.86853 13.1029 9.74856 13.1084 9.63317 13.1366C9.51779 13.1647 9.40931 13.2151 9.31405 13.2846C9.21879 13.3542 9.13867 13.4416 9.07835 13.5417C9.01804 13.6418 8.97874 13.7527 8.96275 13.8678C8.94676 13.9829 8.95439 14.1 8.98521 14.2122L9.60222 16.625H8.0625C6.87455 16.625 5.73526 16.1641 4.89525 15.3436C4.05525 14.5231 3.58334 13.4103 3.58334 12.25C3.58334 11.0897 4.05525 9.97688 4.89525 9.15641C5.73526 8.33593 6.87455 7.875 8.0625 7.875H8.12745C8.08411 8.16474 8.0624 8.45718 8.0625 8.75C8.0625 8.98206 8.15688 9.20462 8.32489 9.36872C8.49289 9.53281 8.72075 9.625 8.95834 9.625C9.19593 9.625 9.42378 9.53281 9.59179 9.36872C9.75979 9.20462 9.85417 8.98206 9.85417 8.75C9.85417 7.58968 10.3261 6.47688 11.1661 5.65641C12.0061 4.83593 13.1454 4.375 14.3333 4.375C15.5213 4.375 16.6606 4.83593 17.5006 5.65641C18.3406 6.47688 18.8125 7.58968 18.8125 8.75C18.8125 8.98206 18.9069 9.20462 19.0749 9.36872C19.2429 9.53281 19.4707 9.625 19.7083 9.625C19.9459 9.625 20.1738 9.53281 20.3418 9.36872C20.5098 9.20462 20.6042 8.98206 20.6042 8.75C20.6043 8.45718 20.5826 8.16474 20.5392 7.875H20.6042C21.7921 7.875 22.9314 8.33593 23.7714 9.15641C24.6114 9.97688 25.0833 11.0897 25.0833 12.25C25.0833 13.4103 24.6114 14.5231 23.7714 15.3436C22.9314 16.1641 21.7921 16.625 20.6042 16.625Z" fill="#000A01"/>
</svg>
